<svg width="262.5" height="130" viewBox="0 0 210 104" xmlns="http://www.w3.org/2000/svg"><g fill="#fff"><path d="m68.25 19.88c1.44-1.86 2.79-3.81 4.5-5.44-.85 2.16-1.9 4.24-2.98 6.3-.38-.22-1.14-.64-1.52-.86"/><path d="m24.29 20.18c1.29.67 1.26 1.33-.12 1.98-1.3-.66-1.26-1.32.12-1.98"/><path d="m77.15 20.26c1.71-1.26 2.33 1.9 1.14 2.73-1.7 1.3-2.43-1.92-1.14-2.73"/><path d="m72.56 21.89c1.4-.47 1.89 0 1.48 1.41-1.4.45-1.9-.02-1.48-1.41"/><path d="m17.21 25.13c1.64-.58 2.18-.06 1.62 1.58-1.63.58-2.17.06-1.62-1.58"/><path d="m75.59 25.35c.84-.88 3.32-1.35 3.58.27-.35 1.79-4.84 2-3.58-.27"/><path d="m81.63 25.98l1.12.001c.03 1.6.06 3.2.1 4.8-1.13-.91-2.27-1.83-3.4-2.74.05.9.16 2.68.22 3.57-2.11-.88-.98-2.72-.55-4.27 1.14.56 2.28 1.12 3.43 1.67-.23-.76-.69-2.28-.92-3.04"/><path d="m79.32 34.79c1.05-1.03 2.11-2.07 3.18-3.09.13.48.37 1.46.49 1.94l-1.78-.49.17 2.09c1.31.55 2.61 1.11 3.92 1.67-.23 1.36-.45 2.72-.67 4.08-1.91-.51-4.49-.59-4.1-3.36.55.52 1.64 1.56 2.19 2.08.62-.63 1.23-1.27 1.84-1.92-1.76-.98-3.5-1.99-5.24-3"/><path d="m84.51 33.12c1.58-.54 2.13.03 1.65 1.7-1.58.52-2.13-.04-1.65-1.7"/><path d="m86.25 40.44c1.44-.04 1.45 2.41.06 2.5-1.44.02-1.42-2.38-.06-2.5"/><path d="m80.44 43.16c1.02-1.64 3.36.29 2.16 1.69-1.02 1.64-3.36-.29-2.16-1.69"/><path d="m83.94 44.25c1.38-1.21 2.59 1.3 1.36 2.18-1.38 1.24-2.66-1.31-1.36-2.18"/><path d="m80.25 48.08c1.67-.75 3.37 3.01 1.63 3.8-1.46-.32-2.21-2.51-1.63-3.8"/><path d="m85.44 48.06c1.69.001 1.25 2.77-.21 2.82-1.68-.05-1.23-2.74.21-2.82"/><path d="m77.87 53.95c.46-.81.93-1.62 1.4-2.44.22.57.68 1.71.9 2.28.91-.27 1.82-.53 2.73-.79.33 2.11 1.14 4.93-1.92 5.17.43-.6 1.29-1.78 1.72-2.38-1.54-.79-3.2-1.3-4.83-1.84"/><path d="m75.79 56.14c1.42.24 2.85.47 4.27.7-.33.77-.67 1.54-1 2.31-.62-.49-1.85-1.49-2.47-1.99.22 1.1.57 2.17 1.04 3.19.44.57 1.33 1.71 1.77 2.28-.73.57-1.46 1.14-2.19 1.71-.11-.77-.34-2.32-.45-3.09-.77-.2-2.31-.61-3.09-.81.29.68.85 2.05 1.14 2.73-1.32.28-2.65.55-3.97.81 1.52.76 3.04 1.5 4.57 2.24-9.46 8.15-23.71 8.95-34.64 3.34-.45.68-1.34 2.05-1.79 2.73-1.59-3.45-3.09-6.94-4.54-10.45 3.76-.44 7.53-.79 11.29-1.19-.41.82-1.23 2.46-1.64 3.29 5.91 2.52 12.64 3.73 18.87 1.66 3.11-.98 5.81-2.96 9.03-3.62.35-2.54 2.09-2.43 4.13-1.48-.12-1.46-.24-2.9-.33-4.36"/><path d="m28.52 75.29c.67-1.18 1.17-2.55 2.34-3.36.6.35 1.81 1.04 2.41 1.39-1.02.47-3.06 1.4-4.08 1.87 1.96.38 3.93.71 5.9 1.01.17.38.52 1.14.7 1.53-1.28.04-2.56.08-3.84.13-.33-.32-.97-.97-1.29-1.3-1.65-.31-3.3-.65-4.95-.95.07-.98.13-1.96.21-2.93.87.87 1.74 1.74 2.6 2.61"/></g><g fill="#fff"><path d="m38.89 16.19c.54.2 1.63.58 2.17.77-1.08.42-2.17.82-3.26 1.21.5 1.67.93 3.36 1.27 5.07-2.28-.27-2.09-1.88-1.43-3.61-.6-.09-1.82-.25-2.42-.33 1.24-1.01 2.49-2.03 3.67-3.11"/><path d="m30.26 17.36c.91-1.61 3.49 0 2.32 1.49-.93 1.53-3.59.001-2.32-1.49"/><path d="m45.96 16.7c.91.59 1.81 1.19 2.71 1.8-.76.09-2.26.26-3.01.35.29 1.15.58 2.3.86 3.45 1.18-.52 2.38-1.03 3.57-1.53.19.8.56 2.4.75 3.21.4-1.85.43-3.74.39-5.62 11.43 4.66 19.64 16.19 19.76 28.62.87.02 2.6.06 3.46.08-2.29 3.02-4.51 6.07-6.7 9.17-2.39-2.98-4.6-6.1-6.8-9.22.89-.02 2.68-.04 3.57-.05-.42-9.63-6.48-18.57-15.37-22.35l.77-1.49c-2.18 1.12-3.95 1.1-4.33-1.65-1.2.53-2.4 1.07-3.6 1.6-.44-1.39-.9-2.78-1.4-4.15.55.02 1.67.07 2.23.09l-.21 2.75c1.71-1.24 2.9-2.97 3.35-5.06"/><path d="m27.22 20.23c.97-1.52 3.56.06 2.28 1.54-.96 1.53-3.59-.07-2.28-1.54"/><path d="m33.68 20.08c.57-.03 1.72-.1 2.29-.14-1.15 1.58-2.14 3.51-4.23 3.92.63-1.27 1.28-2.52 1.94-3.78"/><path d="m20.65 24.67c1.62-.76 3.42-1.01 5.18-1.22-.09 1.51-.4 2.99-.72 4.47-.51-.32-1.54-.94-2.06-1.26l1.69-.54c-.79-.63-1.59-1.25-2.39-1.86-.45 1.93-.74 3.89-.76 5.88-.27.2-.82.61-1.1.81l-.42-1.6c-.7.19-2.12.58-2.82.77.83-1.24 2.03-1.66 3.58-1.24-.09-1.41-.2-2.81-.18-4.21"/><path d="m28.37 23.09c3.9-.59-.001 4.56-1 1.17.25-.29.75-.88 1-1.17"/><path d="m11.69 32.86c1.53-1.33 3.33-2.26 5.1-3.22-.21.97-.64 2.9-.86 3.87.77-.31 2.31-.93 3.08-1.24-.11.54-.34 1.61-.45 2.15-1.23-.2-2.46-.39-3.7-.58l1.16-1.42c-.3-.24-.89-.73-1.19-.97-.78.35-2.35 1.06-3.14 1.41"/><path d="m13.12 35.96c.39-.25.78-.5 1.17-.75.85.91 1.72 1.82 2.59 2.71-.27.21-.81.62-1.08.83-.71-1.11-1.6-2.04-2.68-2.79"/><path d="m8.84 39.57c1.23-.8 2.47-1.59 3.72-2.37.05.54.15 1.62.21 2.15-1.31.08-2.62.15-3.93.22"/><path d="m9.96 42.42c.29-.3.86-.89 1.14-1.19.73.35 1.47.43 2.23.23.31-.14.95-.43 1.26-.58.11.39.34 1.17.45 1.56-.51.23-1.53.69-2.04.92l-1 .69c-.001-.42-.001-1.25-.001-1.66l-2.03.03"/><path d="m7.43 46.69c2.45-.33 4.92-.4 7.38-.49-.17.4-.53 1.21-.71 1.61-2.23-.31-4.49-.54-6.67-1.12"/></g><g fill="#fff"><path d="m34.84 28.94c3.78.36 7.55.82 11.32 1.29-1.49 3.51-3.05 6.99-4.79 10.38-.4-.76-1.2-2.28-1.59-3.04-4.44 2.96-8.12 7.09-10.07 12.1-1.69 3.72-1.55 7.87-2.07 11.83l-1.08 1.43c.54.19 1.63.58 2.18.77-.44 1.38-.86 2.77-1.26 4.16-1.33.64-2.74 1.03-4.18 1.29-.35-.9-.7-1.8-1.05-2.7 2.06.8 4.14.38 5.46-1.46l-2.7-.57c.25-.97.75-2.9 1.01-3.87-1.42 1.03-2.86 2.04-4.3 3.03-1.85-12.29 4.09-25.22 14.7-31.7-.53-.98-1.05-1.96-1.58-2.94"/><path d="m101.34 42.63c2.53 4.6 4.62 9.42 7.12 14.03 2.24-4.71 4.31-9.51 6.89-14.04 1.05 5.73 1.78 11.52 2.67 17.28.8.18 2.4.55 3.2.73-1.98.17-3.95.31-5.92.44-.51-3.85-1.01-7.71-1.58-11.55-2.32 3.74-4.02 7.82-6.16 11.66-2.04-3.81-3.84-7.74-5.86-11.56-.67 3.77-1.34 7.58-1.07 11.43-1.25-.06-2.5-.11-3.75-.17.42-.32 1.26-.96 1.69-1.28.94-5.65 1.55-11.36 2.77-16.97"/><path d="m169.43 47.33c3.19-2.47 7.45-1.83 11.16-1.3.13 1.39.28 2.78.45 4.17-1.54-4.79-9.64-5.01-10.98-.03-1.55 4.21 1.18 9.5 5.85 9.85 2.35.56 3.96-1.38 5.34-2.92-.47 1.21-.74 2.53-1.52 3.59-3.55.65-7.69.53-10.55-1.94-3.4-2.85-3.33-8.75.25-11.42"/><path d="m121.22 45.84c4.27.38 8.59-.2 12.82.42l1.42 1.14c-2.04-.13-4.07-.33-6.11-.51-.05 4.32-.05 8.64.05 12.95.92.3 1.83.59 2.75.88-2.4.15-4.8.27-7.2.35.34-.44 1.02-1.33 1.36-1.77-.03-4.16 0-8.32-.04-12.49-1.97.2-3.95.44-5.91.76l.86-1.73"/><path d="m137.11 45.94c3.57.6 9.68-1.59 11.06 3.06-.31 1.01-.94 3.03-1.26 4.04-1.29-2.73-1.57-6.56-5.56-6.43-.09 2.3-.16 4.6.02 6.9 1.06-.31 3.19-.92 4.25-1.23-.18.61-.53 1.83-.7 2.44l.85-.71c1.72 2.33 3.62 4.52 5.78 6.46 2.29-5.07 4.36-10.25 6.69-15.3 2.25 4.15 3.76 8.64 5.79 12.89.54 1.35 1.79 2.17 2.86 3.07-1.63-.08-3.27-.15-4.9-.22-.53-1.65-1.1-3.29-1.67-4.92-1.73 0-3.45.001-5.17.001-.48 1.15-.97 2.29-1.46 3.43.31.39.91 1.18 1.22 1.57-1.99-.001-3.99.11-5.95-.18-3.17-1.53-3.97-5.93-7.64-6.73.17 2.32-.78 5.21 1.52 6.82-1.8.04-3.61.11-5.41.2 1.93-2.27 1.21-5.36 1.38-8.09-.27-2.4.84-5.57-1.7-7.08m20.78 3.76c-.72 1.71-1.44 3.42-2.16 5.13 1.42.001 2.85.02 4.28.03-.7-1.72-1.4-3.44-2.12-5.16"/><path d="m183.78 46.16c1.87-.09 3.76-.18 5.64-.3-1.72 1.78-1.41 4.26-1.44 6.52 1.84-1.47 3.6-3.02 5.37-4.58.1-.45.3-1.34.4-1.79 1.64-.001 3.28-.03 4.92-.06-3.22 1.44-5.85 3.82-8.44 6.15 3.05 3.33 5.97 6.96 10.09 9.06-2.06-.33-4.52.22-6.19-1.28-2.23-1.92-4-4.28-6.04-6.38.1 2.64-1.02 6.01 1.86 7.61-2.02-.1-4.05-.18-6.07-.25.44-.31 1.31-.93 1.75-1.23.03-4.1.02-8.19.06-12.29-.48-.29-1.44-.88-1.91-1.18"/><path d="m28.99 67.63c.56.83 1.12 1.65 1.68 2.47l-2.21-.61c-.001.63-.03 1.9-.04 2.53-.78-.27-1.54-.58-2.28-.94.96-1.14 1.91-2.29 2.85-3.45"/><path d="m30.18 80.22c.99-2.68 4.28 1.04 1.79 2.01-1.2-.1-1.8-.77-1.79-2.01"/><path d="m37.12 79.13c1.61-.46 2.18.11 1.72 1.73-1.61.46-2.19-.11-1.72-1.73"/><path d="m34.27 81.12c.99-1.26 3.12.39 2.25 1.69-.97 1.27-3.09-.42-2.25-1.69"/><path d="m39.12 83.84c1.12-.78 2.1-1.71 2.99-2.74.56 1.23 1.11 2.47 1.75 3.67 1.13-.7 2.26-1.38 3.4-2.05.16 1.46.33 2.92.51 4.37-.21-.04-.63-.12-.83-.16-.2-.73-.6-2.2-.8-2.93-1.29.97-2.59 1.95-3.89 2.92-1.01-1.06-2.04-2.11-3.13-3.08"/><path d="m63.83 81.3c.42-.09 1.27-.27 1.69-.36.83 2.04 1.78 4.03 2.47 6.13-1.58-1.78-2.89-3.77-4.16-5.77"/><path d="m59.44 83.59c.39-1.95 4.14-.23 3.45 1.41-1.2.63-2.91-.25-3.45-1.41"/><path d="m37.17 84.31c1.31-.54 2.46 1.72.83 2.05-1.34.55-2.44-1.68-.83-2.05"/><path d="m49.93 84.87c1.16-.65 2.61-1.88 2.93.25.79.78 1.77 1.23 2.95 1.35l-.79-2.46c.49-.02 1.45-.05 1.93-.06-.45 1.39-.87 2.79-1.29 4.19l.09-1.46c-1.78.14-3.55.37-5.31.69.76.72 2.26 2.17 3.02 2.89-1.59-.65-3.08-1.49-4.61-2.25 1.04-.31 1.7-.9 2.01-1.78-.24-.34-.7-1.02-.93-1.36"/><path d="m57.41 86.99c.99-1.88 4.16.35 3.39 2.02-1.28.65-3.24-.65-3.39-2.02"/><path d="m61.28 86.1c2.96-1.61.22 3.3 0 0"/><path d="m43.89 87.72c1.42-.5 1.96-.06 1.62 1.31-1.43.49-1.97.05-1.62-1.31"/></g></svg>