<svg width="128.75" height="130" viewBox="0 0 103 104" xmlns="http://www.w3.org/2000/svg"><g fill="#29a3dc"><path d="m73.52 0h1.35c-1.13 1.9-2.18 3.84-3.2 5.8-.5-.41-.99-.82-1.48-1.23.45-.37 1.37-1.12 1.82-1.49.56-1 1.06-2.03 1.51-3.08"/><path d="m26.32 5.21c1.31.61 1.25 1.24-.2 1.9-1.32-.59-1.25-1.23.2-1.9"/><path d="m79.62 8.43c-1.76-.28-1.13-3.3.31-3.63 1.54.42 1.04 3.23-.31 3.63"/><path d="m74.53 6.91c1.41-.45 1.91.02 1.51 1.41-1.4.44-1.9-.03-1.51-1.41"/><path d="m19.23 10.19c1.65-.67 2.18-.19 1.6 1.46-1.65.67-2.18.19-1.6-1.46"/><path d="m77.48 10.41c1.12-.92 2.32-1.05 3.62-.39.84 2.07-4.74 2.97-3.62.39"/><path d="m25.97 10.9c1.48-.46 1.94-.001 1.39 1.35-1.46.46-1.93.02-1.39-1.35"/><path d="m83.62 10.99h1.16c-.001 1.59.001 3.19.04 4.79-1.15-.87-2.3-1.75-3.44-2.64.12.78.34 2.35.45 3.13-2.83-.11-1.01-2.31-.53-3.87 1.08.46 2.13.96 3.16 1.52-.21-.74-.63-2.2-.84-2.93"/><path d="m81.34 19.95c.96-1.23 1.98-2.47 3.47-3.06 0 .43-.001 1.29-.02 1.72l-2.04-.22c1.04 1.67 2.62 2.91 4.41 3.67-.14 1.25-.27 2.5-.4 3.75-1.27-.12-2.52-.29-3.77-.5-.03-.65-.09-1.95-.12-2.59.45.5 1.33 1.52 1.78 2.02.62-.63 1.24-1.28 1.85-1.93-.73-.52-2.2-1.56-2.93-2.07-.56-.2-1.67-.59-2.23-.79"/><path d="m86.5 18.05c1.57-.46 2.1.15 1.59 1.83-1.56.45-2.09-.16-1.59-1.83"/><path d="m88.29 25.4c1.49-.04 1.27 2.49-.05 2.6-1.43-.05-1.19-2.41.05-2.6"/><path d="m82.45 28.17c1.05-1.66 3.37.28 2.13 1.69-1.05 1.62-3.34-.29-2.13-1.69"/><path d="m86.04 29.21c1.45-1.22 2.39 1.42 1.24 2.25-1.42 1.31-2.56-1.44-1.24-2.25"/><path d="m82.21 32.96c1.52-.38 3.4 2.96 1.76 3.89-1.61-.09-2.35-2.59-1.76-3.89"/><path d="m87.48 33c1.73.06 1.01 2.9-.4 2.94-1.6-.21-.92-2.78.4-2.94"/><path d="m80.11 37.3c1.22-.37 2 .12 2.33 1.46.79-.25 1.58-.5 2.37-.74.45 1.74 1.42 5.65-1.8 4.66.39-.39 1.19-1.17 1.58-1.56-1.14-1.98-5.41-.85-4.48-3.82"/><path d="m76.75 42.25c1.57-1.23 3.53-.65 5.33-.57-.45.81-.8 1.66-1.03 2.55-.56-.55-1.66-1.66-2.22-2.22.1 1.25.23 2.5.39 3.74.79.72 1.63 1.39 2.5 2.01-.71.37-2.13 1.11-2.84 1.48.14-.79.42-2.37.56-3.15-.93-.06-2.8-.18-3.73-.24.27.53.81 1.59 1.08 2.12-1.16.55-2.39.89-3.68 1 1.2 1.07 2.7 1.61 4.23 1.99-9.05 8.62-23.73 9.16-34.54 3.57-.46.69-1.37 2.06-1.83 2.74-1.52-3.34-2.91-6.74-4.59-10 3.63-1.35 7.59-1 11.36-1.64-.39.72-1.18 2.14-1.57 2.86 6.31 3.98 14.71 4.07 21.47 1.11 2.22-.85 4.19-3.11 6.76-2.16-1.02-2.98 1.6-3.08 3.57-1.82-.001-1.11-.03-2.22-.05-3.33l-1.17-.04"/><path d="m30.88 60.43c-.31-2.41 2.69-4.92 4.12-1.97-.87.41-2.61 1.23-3.48 1.64 1.77.66 3.62 1 5.53 1 .17.39.52 1.19.69 1.59-1.25.13-2.51.18-3.77.16-.34-.32-1.01-.98-1.34-1.31-1.55-.41-3.15-.5-4.7-.9.001-.83-1.17-2.6.42-2.31 1.01.51 1.85 1.21 2.53 2.1"/></g><g fill="#0a78be"><path d="m40.71 1.04c.46.18 1.37.53 1.83.71-.18 1.43-1.93 1-2.89 1.28.74 1.55 1.03 3.24 1.33 4.92-2.33.35-2.18-1.71-1.19-3.15-.64-.19-1.93-.57-2.57-.76 1.37-.75 2.75-1.55 3.49-3"/><path d="m32.24 2.38c.9-1.54 3.53-.13 2.37 1.4-.88 1.53-3.78.12-2.37-1.4"/><path d="m47.55 1.93c1.31.05 2.51.37 2.73 1.87-.61-.001-1.84-.04-2.46-.06.24 1.16.48 2.32.72 3.48 1.19-.58 2.44-1.01 3.73-1.3.04.69.13 2.07.18 2.75 1.45-1.45.72-3.5.54-5.27 11.62 4.35 19.9 16.15 19.96 28.57.87.03 2.63.08 3.51.1-2.29 2.99-4.51 6.02-6.65 9.11-2.52-2.88-4.63-6.07-6.86-9.18.88 0 2.62-.001 3.49-.001-.29-8.49-5.03-16.82-12.57-20.88-1.03-.9-3.79-1.04-2.24-3.21-.76.32-2.3.95-3.06 1.27.62-2.06-2.7-4.5-3.03-1.29-.46-.02-1.39-.05-1.86-.06.12-1.46-.46-2.71-1.31-3.85.61 0 1.84 0 2.45 0-.05.63-.17 1.88-.22 2.51 2.7.47 2.88-2.73 2.95-4.55"/><path d="m29.22 5.28c.94-1.48 3.62-.07 2.34 1.44-.9 1.53-3.74.04-2.34-1.44"/><path d="m35.52 5.14c.57-.1 1.71-.31 2.29-.41-.52 1.33-2.56 5.6-4.02 2.87l1.45-.91c.07-.38.21-1.16.28-1.55"/><path d="m22.57 9.4c1.53-.12 3.04-.44 4.44-1.09.07.36.22 1.08.29 1.44-3.55-1.21-4.6 2.92-3.32 5.44-1.06.63-1.9.21-2.55-.76l-1.9.84c.46-1.81 1.6-2.14 3.43-.99.26-1.66-.53-3.24-.39-4.88"/><path d="m30.31 8.13c4.03-.75.02 4.45-1.03 1.11.26-.28.77-.83 1.03-1.11"/><path d="m14.09 17.97c.81-1.9 3.02-2.34 4.72-3.13-.22.91-.66 2.72-.88 3.62.77-.29 2.31-.87 3.09-1.16-.13.53-.39 1.57-.52 2.1-1.17-.14-2.33-.3-3.49-.5l.76-1.4c-.29-.33-.85-.97-1.13-1.3-.64.45-1.92 1.33-2.55 1.77"/><path d="m14.9 21.31c.46-.38.93-.75 1.41-1.1.87.88 1.73 1.78 2.56 2.7-.34.25-1.02.76-1.36 1.02-.04-1.78-.91-2.65-2.61-2.62"/><path d="m10.92 24.51c1.18-.8 2.4-1.54 3.62-2.28.05.53.16 1.59.21 2.12-1.28.09-2.55.15-3.83.16"/><path d="m12.29 26.91c.41-.41 1.22-1.22 1.63-1.62-.03.65-.08 1.96-.11 2.61.74-.49 2.23-1.48 2.97-1.97.07.51.22 1.54.29 2.05-.53-.12-1.59-.37-2.12-.49l-.32 1.84c-.75-.84-1.54-1.63-2.34-2.42"/><path d="m9.65 31.6c2.37-.35 4.76-.3 7.15-.34-.19.38-.56 1.13-.74 1.51-2.15-.23-4.42-.19-6.41-1.17"/></g><g fill="#233c7b"><path d="m36.85 13.95c3.77.34 7.53.81 11.29 1.27-1.54 3.4-2.7 7.03-4.91 10.1-.35-.67-1.06-2.02-1.41-2.69-8.18 4.98-13.12 14.97-11.65 24.49l-2.15-.42c.66.53 1.99 1.6 2.65 2.14-.39 1.28-.78 2.57-1.15 3.86-1.46.42-2.92.87-4.38 1.29-.28-.93-.55-1.85-.82-2.77 1.45-.17 2.33.54 2.62 2.11.78-1.25 1.66-2.43 2.56-3.6l-2.38-.13c.23-1 .69-2.99.92-3.99-1.38 1.02-2.81 1.99-4.27 2.9-1.97-12.26 4.11-25.19 14.68-31.64-.55-.97-1.08-1.94-1.6-2.92"/><path d="m30.03 52.73c1.29.22 2.09.96 2.4 2.23l-2.18-.24c.08.64.26 1.9.35 2.53-.99-.39-1.74-1.14-2.48-1.88.57-.25 1.7-.75 2.27-1l-.36-1.64"/><path d="m33.17 64.29c1.64-.45 2.45 2.37.8 2.81-1.64.34-2.77-2.51-.8-2.81"/><path d="m39.1 64.12c1.6-.44 2.19.15 1.76 1.76-1.6.44-2.19-.15-1.76-1.76"/><path d="m36.26 66.09c1.03-1.18 3.16.5 2.26 1.78-1 1.17-3.1-.53-2.26-1.78"/><path d="m42.57 69.61c-3.18-.57.71-2.08 1.49-3.34.62 1.14 1.2 2.3 1.87 3.41 1.1-.67 2.23-1.27 3.4-1.81.15 1.41.29 2.82.43 4.23-.24-.06-.7-.17-.93-.22-.28-.69-.82-2.05-1.1-2.74-1.2 1.09-2.44 2.12-3.63 3.21-.48-.93-.99-1.85-1.53-2.74"/><path d="m65.92 66.22c.49-.08 1.48-.25 1.98-.33-1.12 2.53 2.46 3.43 1.98 6.01-1.68-1.62-2.88-3.63-3.96-5.68"/><path d="m61.36 68.7c.34-2.16 4.27-.35 3.62 1.32-1.21.16-2.99-.14-3.62-1.32"/><path d="m39.08 69.32c1.26-.58 2.64 1.57.99 1.99-1.3.57-2.62-1.54-.99-1.99"/><path d="m51.67 69.33c1.96-.79 2.83-.19 2.59 1.8 1.25.02 2.5.001 3.75-.001l-1.08-2.1c.52-.03 1.55-.07 2.07-.09-.54 1.36-.87 2.79-1.3 4.18l.12-1.38c-1.81.09-3.64.27-5.35.91.75.42 2.25 1.26 3 1.68-1.11 1.85-3.2-1.13-4.68-1.66.85-.44 2.57-1.32 3.43-1.76-.64-.39-1.91-1.18-2.55-1.57"/><path d="m60.22 71.35c.34.04 1.01.11 1.35.14.71.5 2.36 2.44.66 2.75-1.25-.001-4.22-1.97-2.01-2.89"/><path d="m63.3 71.04c3.01-1.52.1 3.3 0 0"/><path d="m46.12 72.34c1.27-.55 2.69 1.62.98 2.01-1.26.51-2.61-1.61-.98-2.01"/><path d="m2 100.06c.74-4.82 1.23-9.69 2.41-14.43 2.4 4.63 4.6 9.36 6.96 14 2.4-4.62 4.35-9.48 6.99-13.98 1.04 5.78 1.8 11.61 2.67 17.42 1.11.32 2.22.63 3.34.93h-5.96c-.73-3.75-1.09-7.56-1.67-11.34-2.5 3.55-3.83 7.73-6.22 11.34h-.23c-1.72-3.86-3.67-7.61-5.56-11.38-.68 3.75-1.47 7.55-1.06 11.38h-3.67v-.59c1.39-.52 1.86-2.01 2-3.35"/><path d="m73.57 89.59c3.13-1.63 6.72-.98 10.06-.55.11 1.39.23 2.79.36 4.18-1.35-4.04-6.92-4.81-9.86-2.1-2.48 3.29-1.81 8.84 1.93 10.93 2.91 2.04 6.54.76 8.36-2.04-.58 1.37-1.18 2.73-1.98 3.99h-6.74c-2.06-1.35-4.63-2.51-5.47-5.03-1.47-3.39.001-7.72 3.34-9.38"/><path d="m23.1 90.46c1.4-2.61 4.62-1.16 6.94-1.52 2.71.5 6.4-1.08 8.25 1.54-1.98-.15-3.95-.36-5.92-.64-.1 4.47-.09 8.94.11 13.4.72.19 2.15.57 2.87.76h-7.1c2.04-4.42.67-9.48 1.02-14.18-2.05.28-4.11.51-6.17.64"/><path d="m39.96 89.17c3.31.04 6.97-.87 10.03.76 2.08 1.53.71 4.3-.1 6.11-1.07-2.83-1.65-6.47-5.54-6.42-.08 2.26-.14 4.52 0 6.79.84-.13 2.53-.37 3.37-.5 2.11 2.68 4.3 5.31 6.9 7.52 2.23-5.08 4.22-10.26 6.72-15.22 2.12 4.16 3.67 8.57 5.64 12.79.53 1.46 1.72 2.42 3.12 3h-4.95c-.69-1.66-1.29-3.35-1.89-5.03-1.74 0-3.48.02-5.22.04-.44 1.28-.9 2.56-1.32 3.85.34.29 1.01.86 1.35 1.14h-6.5c-2.54-2.18-3.72-6.1-7.28-6.83-.001 1.91 0 3.83.15 5.74.49.28 1.45.82 1.93 1.09h-4.86c.26-4.52.31-9.05.3-13.58-.46-.31-1.39-.94-1.85-1.25m20.85 3.67c-.7 1.65-1.39 3.31-2.05 4.98 1.41.04 2.82.05 4.23.03-.58-1.73-1.37-3.38-2.18-5.01"/><path d="m86.77 89.1c1.65-.06 3.3-.12 4.96-.16-.6 2.12-.78 4.31-.68 6.51 2.35-1.78 4.5-3.84 6.07-6.36 1.54-.08 3.08-.14 4.62-.19-3.21 1.5-5.96 3.79-8.49 6.24 2.97 3.24 5.81 6.71 9.75 8.83v.03h-4.51c-2.77-2.17-4.99-4.92-7.37-7.48-.03 2.17-.06 4.35-.07 6.53.61.23 1.83.71 2.44.95h-6.71c.47-.31 1.4-.92 1.87-1.23-.001-4.14 0-8.28.04-12.42-.48-.31-1.44-.93-1.92-1.25"/></g></svg>