<?xml version="1.0" encoding="UTF-8" ?>
<!DOCTYPE svg PUBLIC "-//W3C//DTD SVG 1.1//EN" "http://www.w3.org/Graphics/SVG/1.1/DTD/svg11.dtd">
<svg width="236pt" height="185pt" viewBox="0 0 236 185" version="1.1" xmlns="http://www.w3.org/2000/svg">
<g id="#ffffffff">
<path fill="#ffffff" opacity="1.00" d=" M 126.75 124.84 C 127.48 123.09 128.21 121.35 128.94 119.60 C 129.63 121.36 130.31 123.11 130.98 124.87 C 129.57 124.86 128.16 124.85 126.75 124.84 Z" />
</g>
<g id="#29a3dcff">
<path fill="#29a3dc" opacity="1.00" d=" M 139.92 30.14 C 140.50 28.63 141.52 27.39 142.84 26.48 C 141.92 28.73 140.73 30.86 139.47 32.95 C 139.17 32.57 138.56 31.80 138.26 31.42 C 138.67 31.10 139.51 30.46 139.92 30.14 Z" />
<path fill="#29a3dc" opacity="1.00" d=" M 94.27 32.18 C 95.57 32.84 95.54 33.50 94.18 34.16 C 92.87 33.51 92.90 32.85 94.27 32.18 Z" />
<path fill="#29a3dc" opacity="1.00" d=" M 147.61 35.30 C 145.87 35.09 146.27 32.14 147.84 31.96 C 149.51 32.19 149.12 35.09 147.61 35.30 Z" />
<path fill="#29a3dc" opacity="1.00" d=" M 142.54 33.93 C 143.93 33.42 144.43 33.88 144.05 35.30 C 142.67 35.79 142.16 35.33 142.54 33.93 Z" />
<path fill="#29a3dc" opacity="1.00" d=" M 87.19 37.13 C 88.83 36.54 89.37 37.06 88.83 38.70 C 87.20 39.29 86.65 38.77 87.19 37.13 Z" />
<path fill="#29a3dc" opacity="1.00" d=" M 145.58 37.33 C 146.39 36.42 148.83 36.04 149.05 37.65 C 148.76 39.55 144.33 39.61 145.58 37.33 Z" />
<path fill="#29a3dc" opacity="1.00" d=" M 94.01 37.80 C 95.48 37.47 95.91 37.98 95.30 39.32 C 93.84 39.65 93.41 39.15 94.01 37.80 Z" />
<path fill="#29a3dc" opacity="1.00" d=" M 151.64 37.99 L 152.76 37.98 C 152.76 39.58 152.79 41.19 152.82 42.79 C 151.72 41.90 150.61 41.00 149.52 40.10 C 149.53 41.01 149.54 42.81 149.55 43.71 C 147.78 42.63 148.70 40.86 149.05 39.31 C 150.20 39.88 151.35 40.44 152.51 41.00 C 152.29 40.25 151.86 38.74 151.64 37.99 Z" />
<path fill="#29a3dc" opacity="1.00" d=" M 149.13 46.87 C 150.45 45.75 151.78 44.63 153.14 43.55 C 152.66 44.23 151.72 45.57 151.24 46.25 C 152.38 47.22 153.60 48.09 154.75 49.05 C 154.89 50.40 154.82 51.76 154.82 53.11 C 152.89 52.69 150.86 52.19 150.15 50.08 C 151.33 50.88 152.54 51.13 153.80 50.82 C 154.36 49.35 152.43 48.75 151.78 47.74 C 151.12 47.52 149.79 47.09 149.13 46.87 Z" />
<path fill="#29a3dc" opacity="1.00" d=" M 154.97 45.27 C 158.30 45.53 153.35 48.21 154.97 45.27 Z" />
<path fill="#29a3dc" opacity="1.00" d=" M 156.24 52.76 C 157.53 53.39 157.56 54.09 156.31 54.86 C 155.02 54.24 154.99 53.54 156.24 52.76 Z" />
<path fill="#29a3dc" opacity="1.00" d=" M 150.47 55.10 C 151.55 53.52 153.82 55.52 152.60 56.87 C 151.52 58.46 149.24 56.45 150.47 55.10 Z" />
<path fill="#29a3dc" opacity="1.00" d=" M 153.94 56.27 C 155.32 55.07 156.56 57.56 155.31 58.45 C 153.94 59.66 152.63 57.13 153.94 56.27 Z" />
<path fill="#29a3dc" opacity="1.00" d=" M 150.24 60.09 C 151.92 59.35 153.65 63.09 151.90 63.88 C 150.46 63.53 149.64 61.39 150.24 60.09 Z" />
<path fill="#29a3dc" opacity="1.00" d=" M 155.42 60.08 C 157.11 60.09 156.70 62.86 155.21 62.88 C 153.55 62.82 153.97 60.14 155.42 60.08 Z" />
<path fill="#29a3dc" opacity="1.00" d=" M 148.53 63.95 C 149.24 64.57 150.01 65.12 150.84 65.60 C 151.58 65.36 152.32 65.11 153.06 64.87 C 153.28 66.93 154.01 69.79 151.09 70.21 C 151.66 68.99 152.25 67.78 152.86 66.58 C 151.22 66.56 149.57 66.52 147.93 66.47 C 148.08 65.84 148.38 64.58 148.53 63.95 Z" />
<path fill="#29a3dc" opacity="1.00" d=" M 144.55 68.94 C 146.45 68.72 148.36 68.60 150.27 68.51 C 149.73 69.45 149.18 70.37 148.64 71.30 L 147.02 68.85 C 147.02 70.09 147.05 71.32 147.13 72.55 C 147.67 73.02 148.73 73.97 149.27 74.44 C 148.43 75.17 147.61 75.91 146.81 76.67 C 146.97 75.75 147.28 73.91 147.44 72.99 C 146.51 72.96 144.64 72.91 143.71 72.89 C 143.98 73.42 144.51 74.49 144.78 75.02 C 143.67 75.50 142.57 75.97 141.46 76.44 C 142.79 77.02 144.13 77.58 145.47 78.15 C 136.03 86.37 121.74 87.18 110.80 81.57 C 110.34 82.24 109.43 83.58 108.97 84.25 C 107.43 80.85 105.93 77.43 104.39 74.03 C 108.12 73.37 111.91 73.02 115.68 72.66 C 115.29 73.48 114.50 75.14 114.11 75.96 C 118.80 77.81 123.82 79.23 128.91 78.47 C 133.62 78.10 137.55 75.28 141.93 73.85 C 142.14 71.36 144.20 72.03 146.00 72.47 C 145.97 71.43 145.93 70.39 145.89 69.36 L 144.55 68.94 Z" />
<path fill="#29a3dc" opacity="1.00" d=" M 98.70 87.24 C 99.16 84.90 101.11 83.01 103.23 85.11 C 102.31 85.68 100.49 86.83 99.58 87.40 C 101.59 87.69 103.60 87.96 105.62 88.21 C 105.64 90.32 103.42 89.71 102.00 89.97 C 101.66 89.65 101.00 89.01 100.66 88.69 C 99.13 88.32 97.59 87.96 96.10 87.46 C 95.76 86.53 95.59 85.55 95.38 84.60 C 96.50 85.46 97.61 86.35 98.70 87.24 Z" />
</g>
<g id="#0a78beff">
<path fill="#0a78be" opacity="1.00" d=" M 105.19 31.15 C 107.07 30.13 109.06 26.69 110.97 29.59 C 110.13 29.64 108.45 29.74 107.61 29.78 C 108.07 31.74 110.22 34.66 107.06 35.43 C 107.21 34.51 107.51 32.66 107.67 31.74 C 107.05 31.59 105.81 31.30 105.19 31.15 Z" />
<path fill="#0a78be" opacity="1.00" d=" M 100.27 29.33 C 101.21 27.74 103.76 29.41 102.56 30.87 C 101.59 32.38 98.97 30.81 100.27 29.33 Z" />
<path fill="#0a78be" opacity="1.00" d=" M 115.96 28.67 C 116.87 29.27 117.76 29.88 118.65 30.51 C 117.92 30.60 116.45 30.78 115.72 30.87 C 116.00 32.02 116.26 33.18 116.52 34.34 C 117.69 33.80 118.87 33.27 120.06 32.75 C 120.26 33.54 120.67 35.13 120.87 35.92 C 121.21 34.09 121.27 32.23 121.28 30.37 C 132.68 35.07 140.86 46.56 140.99 58.98 C 141.86 59.00 143.58 59.04 144.45 59.06 C 142.16 62.08 139.94 65.14 137.75 68.23 C 135.37 65.25 133.15 62.14 130.96 59.01 C 131.85 59.00 133.63 58.97 134.52 58.96 C 134.01 50.99 130.05 43.09 123.11 38.88 C 121.69 37.83 119.65 37.28 119.13 35.37 C 117.20 36.46 116.05 35.49 115.41 33.57 C 114.32 34.20 113.22 34.82 112.04 35.26 C 111.58 33.81 111.11 32.37 110.59 30.95 C 111.15 30.96 112.27 30.99 112.83 31.01 L 112.60 33.76 C 114.31 32.50 115.57 30.79 115.96 28.67 Z" />
<path fill="#0a78be" opacity="1.00" d=" M 97.26 32.20 C 98.26 30.68 100.79 32.35 99.50 33.80 C 98.51 35.32 95.94 33.64 97.26 32.20 Z" />
<path fill="#0a78be" opacity="1.00" d=" M 103.78 32.09 C 104.29 32.03 105.32 31.89 105.84 31.82 C 105.16 32.95 104.49 34.09 103.83 35.23 C 103.47 35.36 102.74 35.62 102.38 35.75 C 102.32 35.48 102.20 34.94 102.14 34.67 C 102.55 34.02 103.37 32.74 103.78 32.09 Z" />
<path fill="#0a78be" opacity="1.00" d=" M 90.51 36.51 C 92.03 36.17 93.54 35.82 95.05 35.43 C 95.11 35.69 95.22 36.20 95.27 36.46 C 91.36 35.90 91.29 39.90 91.70 42.64 C 90.95 42.35 90.21 42.05 89.47 41.75 C 88.86 41.71 87.66 41.63 87.06 41.60 C 88.28 41.04 89.57 40.78 90.92 40.81 C 90.78 39.38 90.66 37.94 90.51 36.51 Z" />
<path fill="#0a78be" opacity="1.00" d=" M 98.31 35.11 C 102.16 34.41 98.45 39.69 97.36 36.31 C 97.60 36.01 98.07 35.41 98.31 35.11 Z" />
<path fill="#0a78be" opacity="1.00" d=" M 81.64 44.76 C 83.29 43.62 85.03 42.63 86.78 41.63 C 86.57 42.60 86.17 44.53 85.97 45.49 C 86.71 45.18 88.20 44.56 88.94 44.25 C 88.86 44.78 88.69 45.85 88.61 46.38 C 87.55 46.25 86.49 46.13 85.44 46.01 C 86.90 42.30 83.14 44.38 81.64 44.76 Z" />
<path fill="#0a78be" opacity="1.00" d=" M 83.17 47.94 C 83.55 47.70 83.93 47.46 84.31 47.22 C 85.16 48.14 86.02 49.04 86.88 49.93 C 86.63 50.14 86.12 50.55 85.86 50.75 C 85.06 49.71 84.16 48.78 83.17 47.94 Z" />
<path fill="#0a78be" opacity="1.00" d=" M 78.81 51.53 C 80.04 50.74 81.27 49.97 82.51 49.21 C 82.58 49.75 82.72 50.83 82.79 51.37 C 81.46 51.43 80.14 51.48 78.81 51.53 Z" />
<path fill="#0a78be" opacity="1.00" d=" M 82.52 56.48 C 81.82 55.24 80.44 54.17 80.81 52.56 C 81.64 53.24 82.47 53.91 83.30 54.59 C 83.65 54.11 84.34 53.15 84.69 52.67 C 84.79 53.26 84.98 54.42 85.08 55.00 C 84.46 54.90 83.23 54.68 82.62 54.57 L 82.52 56.48 Z" />
<path fill="#0a78be" opacity="1.00" d=" M 77.40 58.65 C 80.06 58.26 82.77 58.26 85.45 58.54 C 83.07 60.28 79.99 59.37 77.40 58.65 Z" />
</g>
<g id="#233c7bff">
<path fill="#233c7b" opacity="1.00" d=" M 104.83 40.94 C 108.62 41.30 112.39 41.76 116.16 42.23 C 114.68 45.74 113.13 49.21 111.35 52.58 C 110.96 51.82 110.18 50.32 109.79 49.57 C 105.34 52.52 101.66 56.65 99.72 61.66 C 98.02 65.38 98.16 69.54 97.64 73.51 L 96.51 74.92 C 97.08 75.12 98.20 75.51 98.76 75.70 C 98.33 77.03 97.90 78.36 97.49 79.69 C 96.02 80.14 94.54 80.56 93.06 80.98 C 92.84 79.90 92.62 78.82 92.40 77.74 C 93.33 78.42 94.24 79.14 95.12 79.88 C 95.86 78.85 96.64 77.86 97.42 76.87 L 95.23 76.43 C 95.36 75.49 95.61 73.61 95.74 72.67 C 94.41 73.66 93.06 74.64 91.71 75.60 C 89.86 63.28 95.83 50.37 106.43 43.84 C 105.90 42.87 105.36 41.91 104.83 40.94 Z" />
<path fill="#233c7b" opacity="1.00" d=" M 98.98 79.63 C 99.55 80.40 100.10 81.19 100.64 81.98 L 98.49 81.59 C 98.46 82.21 98.40 83.45 98.37 84.07 C 97.62 83.75 96.88 83.42 96.15 83.06 C 97.11 81.93 98.05 80.79 98.98 79.63 Z" />
<path fill="#233c7b" opacity="1.00" d=" M 100.18 92.20 C 101.20 89.54 104.47 93.27 101.95 94.21 C 100.74 94.11 100.15 93.44 100.18 92.20 Z" />
<path fill="#233c7b" opacity="1.00" d=" M 107.14 91.11 C 108.76 90.68 109.32 91.27 108.82 92.87 C 107.19 93.30 106.63 92.71 107.14 91.11 Z" />
<path fill="#233c7b" opacity="1.00" d=" M 104.29 93.10 C 105.30 91.87 107.42 93.56 106.50 94.83 C 105.51 96.08 103.41 94.35 104.29 93.10 Z" />
<path fill="#233c7b" opacity="1.00" d=" M 111.00 92.57 C 112.15 93.82 113.04 95.28 114.00 96.67 C 115.09 96.01 116.18 95.37 117.28 94.73 C 117.43 96.15 117.58 97.58 117.74 99.00 L 117.06 99.02 C 116.68 97.93 116.28 96.85 115.85 95.78 L 114.89 97.43 C 113.74 97.88 112.61 98.33 111.45 98.76 C 111.24 98.21 110.82 97.11 110.61 96.56 C 110.07 96.11 109.01 95.21 108.48 94.76 C 109.71 95.45 112.17 96.83 113.40 97.53 C 112.80 96.29 111.60 93.81 111.00 92.57 Z" />
<path fill="#233c7b" opacity="1.00" d=" M 133.83 93.24 C 134.26 93.17 135.11 93.02 135.54 92.95 C 136.36 94.99 137.31 96.98 138.05 99.07 C 136.40 97.31 135.08 95.29 133.83 93.24 Z" />
<path fill="#233c7b" opacity="1.00" d=" M 129.43 95.63 C 129.74 93.63 133.49 95.18 132.84 96.86 C 131.72 97.59 129.94 96.77 129.43 95.63 Z" />
<path fill="#233c7b" opacity="1.00" d=" M 107.13 96.31 C 108.42 95.73 109.64 97.95 108.04 98.34 C 106.71 98.93 105.55 96.74 107.13 96.31 Z" />
<path fill="#233c7b" opacity="1.00" d=" M 119.61 95.80 C 121.36 95.67 122.31 96.45 122.46 98.14 C 123.62 98.14 124.79 98.12 125.96 98.08 L 124.94 96.03 C 125.44 96.00 126.45 95.96 126.95 95.94 C 126.50 97.33 126.08 98.73 125.67 100.13 L 125.77 98.67 C 123.98 98.84 122.19 99.07 120.42 99.38 C 121.23 100.14 122.86 101.68 123.67 102.44 C 121.95 101.65 120.32 100.68 118.68 99.75 C 119.57 99.36 121.35 98.59 122.24 98.20 C 121.58 97.60 120.27 96.40 119.61 95.80 Z" />
<path fill="#233c7b" opacity="1.00" d=" M 128.15 98.32 C 129.54 97.98 131.29 99.56 130.78 100.96 C 129.49 102.04 126.00 99.31 128.15 98.32 Z" />
<path fill="#233c7b" opacity="1.00" d=" M 131.32 98.02 C 134.36 96.56 131.34 101.34 131.32 98.02 Z" />
<path fill="#233c7b" opacity="1.00" d=" M 114.17 99.35 C 115.45 98.77 116.72 100.96 115.11 101.38 C 113.81 101.96 112.58 99.78 114.17 99.35 Z" />
<path fill="#233c7b" opacity="1.00" d=" M 72.34 112.61 C 74.83 117.22 77.01 121.99 79.37 126.67 C 81.74 122.00 83.76 117.15 86.36 112.60 C 87.39 118.34 88.13 124.13 89.02 129.90 C 90.08 130.17 91.15 130.45 92.21 130.73 C 90.24 130.84 88.27 130.94 86.30 131.04 C 85.79 127.19 85.28 123.35 84.73 119.51 C 82.40 123.26 80.71 127.36 78.52 131.19 C 76.53 127.36 74.73 123.43 72.67 119.64 C 72.03 123.39 71.40 127.18 71.59 130.99 C 70.46 131.03 69.33 131.07 68.21 131.11 C 68.77 130.14 69.58 129.26 69.79 128.12 C 70.72 122.96 71.18 117.72 72.34 112.61 Z" />
<path fill="#233c7b" opacity="1.00" d=" M 140.37 117.38 C 143.58 114.84 147.91 115.51 151.66 116.04 C 151.70 117.39 151.74 118.75 151.82 120.11 C 150.47 115.29 142.33 115.31 141.07 120.13 C 139.92 123.57 141.22 127.99 144.77 129.42 C 146.66 130.49 148.82 129.82 150.74 129.26 C 151.11 128.64 151.85 127.40 152.22 126.78 C 151.81 128.09 151.72 129.59 150.78 130.67 C 147.22 131.36 143.06 131.22 140.18 128.75 C 136.81 125.92 136.84 120.07 140.37 117.38 Z" />
<path fill="#233c7b" opacity="1.00" d=" M 92.20 115.84 C 96.90 116.70 102.41 114.55 106.52 117.37 C 104.45 117.26 102.40 117.07 100.34 116.91 C 100.31 121.21 100.31 125.51 100.39 129.81 C 101.07 130.01 102.42 130.42 103.09 130.63 C 100.87 130.82 98.64 130.99 96.41 131.14 C 97.96 126.52 97.11 121.59 97.26 116.82 C 95.30 117.01 93.34 117.24 91.39 117.55 L 92.20 115.84 Z" />
<path fill="#233c7b" opacity="1.00" d=" M 108.24 115.94 C 111.84 116.49 117.89 114.39 119.25 119.11 C 118.92 120.09 118.25 122.06 117.91 123.04 C 116.62 120.31 116.32 116.51 112.36 116.58 C 112.27 118.88 112.20 121.18 112.36 123.49 C 113.20 123.37 114.89 123.14 115.73 123.03 C 117.91 125.59 120.05 128.21 122.55 130.47 C 124.84 125.40 126.91 120.23 129.24 115.17 C 132.16 120.32 133.46 126.30 137.04 131.08 C 135.71 131.03 134.37 130.97 133.04 130.92 C 132.55 129.38 132.07 127.83 131.39 126.36 C 129.74 125.76 127.91 126.06 126.19 125.92 C 125.69 127.07 125.20 128.22 124.70 129.36 C 124.99 129.78 125.59 130.62 125.88 131.03 C 123.74 130.93 121.49 131.28 119.42 130.60 C 116.77 128.70 115.73 124.94 112.32 124.07 C 112.36 126.47 111.77 129.25 113.80 131.06 C 112.29 131.03 110.79 131.01 109.28 131.00 C 109.92 127.02 109.87 122.98 109.75 118.96 C 109.76 117.74 109.26 116.73 108.24 115.94 M 126.75 124.84 C 128.16 124.85 129.57 124.86 130.98 124.87 C 130.31 123.11 129.63 121.36 128.94 119.60 C 128.21 121.35 127.48 123.09 126.75 124.84 Z" />
<path fill="#233c7b" opacity="1.00" d=" M 154.79 116.14 C 156.43 116.07 158.07 116.00 159.71 115.93 C 159.13 118.06 158.98 120.26 158.97 122.46 C 160.77 120.98 162.51 119.43 164.26 117.88 C 164.40 117.41 164.67 116.46 164.81 115.98 C 166.32 115.99 167.83 115.99 169.34 116.00 C 166.32 117.59 163.75 119.84 161.22 122.09 C 164.27 125.42 167.19 129.04 171.29 131.14 C 169.27 130.82 166.85 131.37 165.19 129.93 C 162.93 128.01 161.15 125.62 159.09 123.51 C 159.15 126.14 158.19 129.36 160.81 131.11 C 158.83 131.01 156.86 130.93 154.89 130.85 C 155.33 130.54 156.20 129.92 156.63 129.61 C 156.66 125.52 156.65 121.44 156.69 117.35 C 156.21 117.05 155.26 116.44 154.79 116.14 Z" />
</g>
</svg>
