<?xml version="1.0" encoding="UTF-8" ?>
<!DOCTYPE svg PUBLIC "-//W3C//DTD SVG 1.1//EN" "http://www.w3.org/Graphics/SVG/1.1/DTD/svg11.dtd">
<svg width="236pt" height="185pt" viewBox="0 0 236 185" version="1.1" xmlns="http://www.w3.org/2000/svg">
<g id="#6ec1e7ff">
<path fill="#6ec1e7" opacity="1.00" d=" M 141.21 27.21 C 141.84 27.84 141.84 27.84 141.21 27.21 Z" />
</g>
<g id="#499acfff">
<path fill="#499acf" opacity="1.00" d=" M 108.27 28.26 C 112.28 27.35 107.42 32.28 108.27 28.26 Z" />
</g>
<g id="#4799ceff">
<path fill="#4799ce" opacity="1.00" d=" M 101.26 29.10 C 104.44 31.14 97.58 31.55 101.26 29.10 Z" />
<path fill="#4799ce" opacity="1.00" d=" M 94.26 32.12 C 97.46 34.19 90.58 34.53 94.26 32.12 Z" />
</g>
<g id="#28a3dcff">
<path fill="#28a3dc" opacity="1.00" d=" M 116.35 36.30 C 114.50 33.78 114.47 29.16 118.30 28.67 C 117.91 30.87 115.29 31.66 115.88 34.20 C 117.33 33.75 118.77 33.27 120.22 32.85 C 120.26 35.08 117.88 35.40 116.35 36.30 Z" />
<path fill="#28a3dc" opacity="1.00" d=" M 138.90 32.10 C 138.90 30.64 140.64 28.86 142.11 28.90 C 142.12 30.36 140.36 32.12 138.90 32.10 Z" />
<path fill="#28a3dc" opacity="1.00" d=" M 87.11 38.90 C 86.91 37.53 87.49 36.93 88.87 37.12 C 89.07 38.49 88.48 39.08 87.11 38.90 Z" />
<path fill="#28a3dc" opacity="1.00" d=" M 148.88 43.21 C 147.06 42.81 148.14 39.82 149.69 40.03 C 150.14 40.92 150.32 43.15 148.88 43.21 Z" />
<path fill="#28a3dc" opacity="1.00" d=" M 82.09 55.91 C 81.94 54.63 83.74 52.85 85.06 53.23 C 85.63 54.77 83.38 56.02 82.09 55.91 Z" />
<path fill="#28a3dc" opacity="1.00" d=" M 151.37 63.80 C 148.68 61.22 150.59 58.65 152.71 62.33 C 152.84 63.34 152.40 63.84 151.37 63.80 Z" />
<path fill="#28a3dc" opacity="1.00" d=" M 147.61 64.07 C 148.19 64.04 149.36 63.99 149.94 63.97 C 149.99 64.53 150.09 65.65 150.14 66.21 C 151.29 65.73 152.45 65.26 153.61 64.78 C 152.79 65.67 151.96 66.55 151.12 67.42 C 149.80 66.46 148.03 65.83 147.61 64.07 Z" />
<path fill="#28a3dc" opacity="1.00" d=" M 104.75 74.26 C 108.28 73.72 111.74 72.59 115.36 73.01 C 114.92 73.95 114.47 74.87 114.00 75.79 C 119.17 77.91 125.02 80.34 130.62 78.33 C 134.57 77.81 137.82 75.31 141.46 73.88 C 141.42 74.63 141.43 75.39 141.50 76.14 C 142.62 77.22 143.91 78.04 145.38 78.61 C 142.16 80.56 138.70 82.07 135.42 83.89 C 134.49 83.99 133.57 84.09 132.65 84.20 C 126.10 86.32 118.90 84.66 112.58 82.35 C 111.10 81.62 109.67 82.73 108.28 83.14 C 107.26 80.12 106.13 77.14 104.75 74.26 Z" />
</g>
<g id="#59a3d3ff">
<path fill="#59a3d3" opacity="1.00" d=" M 106.17 30.17 C 110.84 29.18 105.09 34.77 106.17 30.17 Z" />
</g>
<g id="#1c81c3ff">
<path fill="#1c81c3" opacity="1.00" d=" M 111.28 31.09 C 114.33 29.57 111.46 34.36 111.28 31.09 Z" />
</g>
<g id="#0a78beff">
<path fill="#0a78be" opacity="1.00" d=" M 120.46 30.90 C 121.24 30.98 122.79 31.16 123.57 31.25 C 123.61 31.27 123.68 31.30 123.71 31.32 C 129.70 34.64 134.43 39.45 137.71 45.46 C 138.78 48.64 140.76 51.66 139.93 55.18 C 139.76 56.34 139.84 57.48 140.14 58.61 L 140.66 58.67 C 141.55 58.77 143.34 58.97 144.23 59.07 C 143.83 59.65 143.02 60.79 142.62 61.37 C 142.57 61.44 142.48 61.58 142.43 61.65 C 140.83 63.91 139.26 66.20 137.45 68.30 C 136.21 66.36 134.89 64.46 133.45 62.66 C 133.41 62.62 133.35 62.54 133.32 62.50 C 132.48 61.33 131.61 60.18 130.74 59.04 C 131.59 58.98 133.30 58.86 134.15 58.80 C 135.88 59.03 135.34 56.86 134.53 56.16 C 133.06 51.75 131.80 47.09 128.46 43.65 C 128.43 43.61 128.36 43.53 128.33 43.49 C 127.56 42.38 126.62 41.44 125.52 40.67 C 125.48 40.64 125.39 40.57 125.35 40.53 C 123.37 38.76 121.09 37.42 118.63 36.45 C 119.50 35.83 120.38 35.23 121.27 34.65 C 122.58 34.27 122.73 32.54 121.52 31.92 L 120.46 30.90 Z" />
</g>
<g id="#74b2d9ff">
<path fill="#74b2d9" opacity="1.00" d=" M 123.57 31.25 C 123.61 31.27 123.68 31.30 123.71 31.32 C 123.68 31.30 123.61 31.27 123.57 31.25 Z" />
</g>
<g id="#4497cdff">
<path fill="#4497cd" opacity="1.00" d=" M 98.25 32.17 C 101.47 34.26 94.52 34.49 98.25 32.17 Z" />
<path fill="#4497cd" opacity="1.00" d=" M 85.22 45.26 C 86.10 44.65 88.67 44.32 88.77 45.74 C 87.89 46.35 85.32 46.68 85.22 45.26 Z" />
</g>
<g id="#3a92cbff">
<path fill="#3a92cb" opacity="1.00" d=" M 103.19 32.10 C 106.24 30.55 103.42 35.35 103.19 32.10 Z" />
</g>
<g id="#5ca5d4ff">
<path fill="#5ca5d4" opacity="1.00" d=" M 121.52 31.92 C 122.73 32.54 122.58 34.27 121.27 34.65 C 121.33 33.97 121.46 32.60 121.52 31.92 Z" />
</g>
<g id="#4db3e2ff">
<path fill="#4db3e2" opacity="1.00" d=" M 143.22 32.22 C 143.83 32.84 143.83 32.84 143.22 32.22 Z" />
</g>
<g id="#64bce5ff">
<path fill="#64bce5" opacity="1.00" d=" M 147.22 32.21 C 147.84 32.84 147.84 32.84 147.22 32.21 Z" />
</g>
<g id="#4096ccff">
<path fill="#4096cc" opacity="1.00" d=" M 107.44 32.88 C 111.75 31.39 106.12 37.94 107.44 32.88 Z" />
</g>
<g id="#4195ccff">
<path fill="#4195cc" opacity="1.00" d=" M 112.20 33.17 C 116.84 32.15 111.14 37.79 112.20 33.17 Z" />
</g>
<g id="#1d82c3ff">
<path fill="#1d82c3" opacity="1.00" d=" M 102.22 34.11 C 105.26 32.56 102.46 37.38 102.22 34.11 Z" />
</g>
<g id="#54b6e3ff">
<path fill="#54b6e3" opacity="1.00" d=" M 142.22 34.10 C 145.29 32.57 142.43 37.35 142.22 34.10 Z" />
</g>
<g id="#32a7ddff">
<path fill="#32a7dd" opacity="1.00" d=" M 147.23 34.22 C 147.83 34.83 147.83 34.83 147.23 34.22 Z" />
</g>
<g id="#4f9ed0ff">
<path fill="#4f9ed0" opacity="1.00" d=" M 91.00 36.36 C 92.40 35.98 93.79 35.51 95.13 34.94 C 95.08 35.44 95.00 36.44 94.96 36.94 C 94.22 36.96 92.75 37.02 92.02 37.04 C 92.00 37.78 91.97 39.26 91.96 40.00 L 91.00 40.00 C 91.00 38.79 91.00 37.57 91.00 36.36 Z" />
</g>
<g id="#4c9ccfff">
<path fill="#4c9ccf" opacity="1.00" d=" M 98.07 35.30 C 102.07 34.93 97.54 39.29 98.07 35.30 Z" />
<path fill="#4c9ccf" opacity="1.00" d=" M 134.53 56.16 C 135.34 56.86 135.88 59.03 134.15 58.80 C 134.25 58.14 134.44 56.82 134.53 56.16 Z" />
</g>
<g id="#4ab1e2ff">
<path fill="#4ab1e2" opacity="1.00" d=" M 146.10 37.23 C 149.35 37.44 144.57 40.30 146.10 37.23 Z" />
<path fill="#4ab1e2" opacity="1.00" d=" M 151.10 50.22 C 154.35 50.43 149.57 53.29 151.10 50.22 Z" />
</g>
<g id="#44afe0ff">
<path fill="#44afe0" opacity="1.00" d=" M 148.22 37.22 C 148.83 37.83 148.83 37.83 148.22 37.22 Z" />
</g>
<g id="#308dc8ff">
<path fill="#308dc8" opacity="1.00" d=" M 94.30 38.10 C 97.35 36.57 94.50 41.37 94.30 38.10 Z" />
</g>
<g id="#43aee0ff">
<path fill="#43aee0" opacity="1.00" d=" M 152.22 38.22 C 152.84 38.83 152.84 38.83 152.22 38.22 Z" />
</g>
<g id="#6fb0d9ff">
<path fill="#6fb0d9" opacity="1.00" d=" M 125.35 40.53 C 125.39 40.57 125.48 40.64 125.52 40.67 C 125.48 40.64 125.39 40.57 125.35 40.53 Z" />
</g>
<g id="#1f83c3ff">
<path fill="#1f83c3" opacity="1.00" d=" M 88.23 41.23 C 88.82 41.82 88.82 41.82 88.23 41.23 Z" />
</g>
<g id="#358fc9ff">
<path fill="#358fc9" opacity="1.00" d=" M 90.25 41.10 C 93.30 39.56 90.46 44.37 90.25 41.10 Z" />
</g>
<g id="#233c7bff">
<path fill="#233c7b" opacity="1.00" d=" M 104.97 40.60 C 105.51 40.78 106.57 41.14 107.11 41.31 C 107.60 41.50 108.59 41.87 109.08 42.05 C 111.14 41.90 113.22 42.03 115.28 42.14 C 115.20 42.54 115.04 43.35 114.96 43.76 C 114.82 46.83 112.58 49.34 111.59 52.19 C 110.73 51.32 109.86 50.46 109.00 49.60 C 101.58 55.40 96.69 64.61 97.98 74.18 L 96.94 73.67 C 96.72 73.56 96.29 73.35 96.07 73.24 C 94.42 72.26 93.24 74.57 91.97 75.27 C 91.94 69.26 91.43 63.02 94.35 57.50 C 94.36 57.46 94.40 57.38 94.42 57.35 C 97.14 52.14 101.01 47.31 106.17 44.38 C 105.78 43.11 105.37 41.86 104.97 40.60 Z" />
<path fill="#233c7b" opacity="1.00" d=" M 122.23 98.23 C 122.80 98.80 122.80 98.80 122.23 98.23 Z" />
<path fill="#233c7b" opacity="1.00" d=" M 122.24 101.24 C 122.81 101.80 122.81 101.80 122.24 101.24 Z" />
</g>
<g id="#5e709fff">
<path fill="#5e709f" opacity="1.00" d=" M 107.11 41.31 C 107.60 41.50 108.59 41.87 109.08 42.05 C 108.59 41.87 107.60 41.50 107.11 41.31 Z" />
</g>
<g id="#60bbe5ff">
<path fill="#60bbe5" opacity="1.00" d=" M 151.22 41.10 C 154.30 39.58 151.43 44.35 151.22 41.10 Z" />
</g>
<g id="#4599cdff">
<path fill="#4599cd" opacity="1.00" d=" M 85.20 42.14 C 89.29 41.01 83.95 46.15 85.20 42.14 Z" />
</g>
<g id="#60729fff">
<path fill="#60729f" opacity="1.00" d=" M 115.28 42.14 C 116.67 42.98 116.56 43.52 114.96 43.76 C 115.04 43.35 115.20 42.54 115.28 42.14 Z" />
<path fill="#60729f" opacity="1.00" d=" M 131.26 98.10 C 134.30 96.56 131.45 101.37 131.26 98.10 Z" />
</g>
<g id="#509fd1ff">
<path fill="#509fd1" opacity="1.00" d=" M 83.10 43.28 C 86.36 43.51 81.55 46.33 83.10 43.28 Z" />
</g>
<g id="#76b4dbff">
<path fill="#76b4db" opacity="1.00" d=" M 128.33 43.49 C 128.36 43.53 128.43 43.61 128.46 43.65 C 128.43 43.61 128.36 43.53 128.33 43.49 Z" />
</g>
<g id="#74c3e8ff">
<path fill="#74c3e8" opacity="1.00" d=" M 152.21 44.21 C 152.84 44.84 152.84 44.84 152.21 44.21 Z" />
</g>
<g id="#48b0e1ff">
<path fill="#48b0e1" opacity="1.00" d=" M 155.10 45.25 C 158.36 45.46 153.57 48.31 155.10 45.25 Z" />
</g>
<g id="#33a8ddff">
<path fill="#33a8dd" opacity="1.00" d=" M 150.23 46.22 C 150.83 46.83 150.83 46.83 150.23 46.22 Z" />
</g>
<g id="#6dafd8ff">
<path fill="#6dafd8" opacity="1.00" d=" M 84.21 47.22 C 84.83 47.83 84.83 47.83 84.21 47.22 Z" />
</g>
<g id="#5cb9e4ff">
<path fill="#5cb9e4" opacity="1.00" d=" M 152.10 47.23 C 155.35 47.44 150.57 50.30 152.10 47.23 Z" />
<path fill="#5cb9e4" opacity="1.00" d=" M 141.46 73.88 C 141.80 72.68 142.60 71.85 143.86 71.65 C 143.92 73.10 143.98 74.54 144.03 75.99 C 143.40 76.02 142.13 76.10 141.50 76.14 C 141.43 75.39 141.42 74.63 141.46 73.88 Z" />
</g>
<g id="#4f9dd0ff">
<path fill="#4f9dd0" opacity="1.00" d=" M 85.31 49.10 C 88.37 47.57 85.52 52.36 85.31 49.10 Z" />
</g>
<g id="#30a6ddff">
<path fill="#30a6dd" opacity="1.00" d=" M 154.22 49.22 C 154.83 49.83 154.83 49.83 154.22 49.22 Z" />
</g>
<g id="#5da6d4ff">
<path fill="#5da6d4" opacity="1.00" d=" M 80.24 50.33 C 80.84 49.33 83.90 49.78 82.37 51.09 C 81.66 52.07 78.87 51.91 80.24 50.33 Z" />
</g>
<g id="#45afe1ff">
<path fill="#45afe1" opacity="1.00" d=" M 153.22 52.22 C 153.83 52.84 153.83 52.84 153.22 52.22 Z" />
</g>
<g id="#64a9d5ff">
<path fill="#64a9d5" opacity="1.00" d=" M 81.22 53.21 C 81.83 53.83 81.83 53.83 81.22 53.21 Z" />
</g>
<g id="#52b5e3ff">
<path fill="#52b5e3" opacity="1.00" d=" M 156.10 53.28 C 159.35 53.48 154.57 56.35 156.10 53.28 Z" />
</g>
<g id="#3d94cbff">
<path fill="#3d94cb" opacity="1.00" d=" M 139.93 55.18 C 141.57 54.83 141.63 57.86 140.66 58.67 L 140.14 58.61 C 139.84 57.48 139.76 56.34 139.93 55.18 Z" />
</g>
<g id="#2ea5ddff">
<path fill="#2ea5dd" opacity="1.00" d=" M 151.10 55.25 C 154.36 55.46 149.57 58.31 151.10 55.25 Z" />
</g>
<g id="#48afe1ff">
<path fill="#48afe1" opacity="1.00" d=" M 154.10 56.22 C 157.35 56.43 152.57 59.29 154.10 56.22 Z" />
</g>
<g id="#7685acff">
<path fill="#7685ac" opacity="1.00" d=" M 94.35 57.50 C 94.36 57.46 94.40 57.38 94.42 57.35 C 94.40 57.38 94.36 57.46 94.35 57.50 Z" />
</g>
<g id="#58a2d2ff">
<path fill="#58a2d2" opacity="1.00" d=" M 79.22 58.28 C 80.49 57.47 84.29 57.43 83.96 59.50 C 82.54 59.01 79.21 60.57 79.22 58.28 Z" />
</g>
<g id="#49b1e1ff">
<path fill="#49b1e1" opacity="1.00" d=" M 155.10 60.22 C 158.35 60.43 153.57 63.29 155.10 60.22 Z" />
</g>
<g id="#6aacd7ff">
<path fill="#6aacd7" opacity="1.00" d=" M 142.43 61.65 C 142.48 61.58 142.57 61.44 142.62 61.37 C 142.57 61.44 142.48 61.58 142.43 61.65 Z" />
</g>
<g id="#76b3daff">
<path fill="#76b3da" opacity="1.00" d=" M 133.32 62.50 C 133.35 62.54 133.41 62.62 133.45 62.66 C 133.41 62.62 133.35 62.54 133.32 62.50 Z" />
</g>
<g id="#4bb1e1ff">
<path fill="#4bb1e1" opacity="1.00" d=" M 146.26 68.13 C 149.44 70.19 142.53 70.53 146.26 68.13 Z" />
</g>
<g id="#41ade0ff">
<path fill="#41ade0" opacity="1.00" d=" M 152.10 68.27 C 155.35 68.48 150.57 71.34 152.10 68.27 Z" />
</g>
<g id="#4bb1e2ff">
<path fill="#4bb1e2" opacity="1.00" d=" M 148.18 69.20 C 152.22 67.93 146.96 73.29 148.18 69.20 Z" />
</g>
<g id="#57b7e4ff">
<path fill="#57b7e4" opacity="1.00" d=" M 145.25 72.10 C 148.32 70.57 145.47 75.35 145.25 72.10 Z" />
</g>
<g id="#516597ff">
<path fill="#516597" opacity="1.00" d=" M 96.07 73.24 C 96.29 73.35 96.72 73.56 96.94 73.67 C 97.46 74.81 97.92 75.99 98.32 77.18 C 96.77 77.11 95.62 76.18 94.56 75.16 C 94.94 74.68 95.69 73.72 96.07 73.24 Z" />
</g>
<g id="#3eacdfff">
<path fill="#3eacdf" opacity="1.00" d=" M 147.17 74.17 C 151.22 72.96 145.97 78.23 147.17 74.17 Z" />
</g>
<g id="#40568cff">
<path fill="#40568c" opacity="1.00" d=" M 93.18 78.32 C 96.60 79.57 91.09 82.26 93.18 78.32 Z" />
</g>
<g id="#4d6193ff">
<path fill="#4d6193" opacity="1.00" d=" M 96.10 78.26 C 99.38 78.46 94.56 81.30 96.10 78.26 Z" />
</g>
<g id="#3a4c7adb">
<path fill="#3a4c7a" opacity="0.86" d=" M 98.61 80.02 C 101.72 79.57 98.67 83.94 97.07 83.80 C 96.64 82.44 97.55 80.85 98.61 80.02 Z" />
</g>
<g id="#4e6295ff">
<path fill="#4e6295" opacity="1.00" d=" M 101.32 84.27 C 103.23 84.60 101.07 86.70 99.96 86.20 C 97.97 85.79 100.30 84.01 101.32 84.27 Z" />
</g>
<g id="#586b9bff">
<path fill="#586b9b" opacity="1.00" d=" M 96.19 85.31 C 99.57 86.59 94.11 89.28 96.19 85.31 Z" />
</g>
<g id="#5c6f9dff">
<path fill="#5c6f9d" opacity="1.00" d=" M 98.32 87.08 C 102.30 86.55 97.89 91.07 98.32 87.08 Z" />
</g>
<g id="#495e91ff">
<path fill="#495e91" opacity="1.00" d=" M 101.36 88.19 C 102.42 87.41 105.30 87.69 105.01 89.42 C 103.99 90.09 100.74 89.99 101.36 88.19 Z" />
</g>
<g id="#546798ff">
<path fill="#546798" opacity="1.00" d=" M 107.05 91.41 C 111.05 90.85 106.40 95.38 107.05 91.41 Z" />
</g>
<g id="#596c9cff">
<path fill="#596c9c" opacity="1.00" d=" M 100.31 92.07 C 104.29 91.54 99.89 96.07 100.31 92.07 Z" />
</g>
<g id="#495e92ff">
<path fill="#495e92" opacity="1.00" d=" M 104.33 93.06 C 108.33 92.43 103.86 97.03 104.33 93.06 Z" />
<path fill="#495e92" opacity="1.00" d=" M 125.23 98.24 C 125.81 98.82 125.81 98.82 125.23 98.24 Z" />
</g>
<g id="#485d91ff">
<path fill="#485d91" opacity="1.00" d=" M 134.22 93.10 C 137.26 91.56 134.41 96.38 134.22 93.10 Z" />
</g>
<g id="#3b4b75cc">
<path fill="#3b4b75" opacity="0.80" d=" M 111.42 94.04 C 115.41 93.39 109.65 97.78 109.04 95.46 C 109.64 95.10 110.83 94.39 111.42 94.04 Z" />
</g>
<g id="#526697ff">
<path fill="#526697" opacity="1.00" d=" M 116.10 95.29 C 119.37 95.48 114.56 98.33 116.10 95.29 Z" />
</g>
<g id="#253d7bff">
<path fill="#253d7b" opacity="1.00" d=" M 130.21 95.02 C 131.26 94.35 133.30 95.52 132.90 96.79 C 131.89 97.25 129.80 96.29 130.21 95.02 Z" />
<path fill="#253d7b" opacity="1.00" d=" M 128.09 99.25 C 129.09 98.74 131.19 99.68 130.83 100.95 C 129.79 101.67 127.75 100.53 128.09 99.25 Z" />
<path fill="#253d7b" opacity="1.00" d=" M 72.03 112.42 C 74.84 116.93 76.65 121.97 79.52 126.44 C 82.61 122.57 82.42 116.20 86.87 113.61 C 87.51 119.46 87.53 125.60 90.02 131.04 C 88.69 131.02 87.36 131.01 86.03 131.00 C 86.29 127.12 85.37 123.34 84.68 119.55 C 82.09 123.16 80.35 127.27 78.57 131.31 C 76.49 127.33 74.95 123.01 72.14 119.45 C 72.94 123.37 70.11 127.46 72.01 131.05 C 71.29 131.05 69.84 131.05 69.11 131.05 C 70.33 127.10 70.46 122.91 71.27 118.87 C 71.47 118.39 71.86 117.42 72.06 116.93 C 71.98 115.43 71.97 113.93 72.03 112.42 Z" />
<path fill="#253d7b" opacity="1.00" d=" M 141.15 129.90 C 135.28 125.54 137.80 114.48 146.00 115.83 L 146.00 117.00 C 145.36 117.01 144.07 117.03 143.43 117.04 C 142.63 117.85 141.82 118.65 141.01 119.45 C 141.01 121.88 141.01 124.32 140.97 126.75 C 143.64 130.39 148.18 129.21 151.61 130.96 C 148.07 131.31 144.55 130.86 141.15 129.90 Z" />
<path fill="#253d7b" opacity="1.00" d=" M 163.46 119.42 C 163.73 117.64 166.21 114.43 167.89 116.42 C 166.60 117.46 165.05 119.23 163.46 119.42 Z" />
</g>
<g id="#455a8fff">
<path fill="#455a8f" opacity="1.00" d=" M 120.19 96.10 C 123.22 94.56 120.38 99.38 120.19 96.10 Z" />
</g>
<g id="#42588dff">
<path fill="#42588d" opacity="1.00" d=" M 125.26 96.10 C 128.29 94.56 125.45 99.38 125.26 96.10 Z" />
</g>
<g id="#2a427fff">
<path fill="#2a427f" opacity="1.00" d=" M 136.24 96.24 C 136.81 96.81 136.81 96.81 136.24 96.24 Z" />
</g>
<g id="#4c6193ff">
<path fill="#4c6193" opacity="1.00" d=" M 107.34 97.10 C 110.37 95.56 107.53 100.38 107.34 97.10 Z" />
</g>
<g id="#566a9aff">
<path fill="#566a9a" opacity="1.00" d=" M 111.38 97.07 C 115.35 96.51 110.86 101.08 111.38 97.07 Z" />
</g>
<g id="#5d709eff">
<path fill="#5d709e" opacity="1.00" d=" M 117.23 98.24 C 117.82 98.82 117.82 98.82 117.23 98.24 Z" />
</g>
<g id="#556999ff">
<path fill="#556999" opacity="1.00" d=" M 119.20 99.10 C 122.24 97.55 119.41 102.37 119.20 99.10 Z" />
</g>
<g id="#4a5e93ff">
<path fill="#4a5e93" opacity="1.00" d=" M 114.32 100.10 C 117.36 98.56 114.51 103.37 114.32 100.10 Z" />
</g>
<g id="#243c7aff">
<path fill="#243c7a" opacity="1.00" d=" M 92.00 116.00 C 96.33 116.00 100.67 116.00 105.00 116.00 L 105.00 116.98 C 103.33 116.99 101.67 117.00 100.01 117.02 C 100.35 121.71 99.05 126.71 100.98 131.16 C 100.14 131.04 98.46 130.82 97.62 130.71 C 98.21 126.21 98.20 121.66 97.91 117.14 L 97.00 117.06 C 95.33 116.96 93.66 116.97 92.00 116.96 L 92.00 116.00 Z" />
</g>
<g id="#2a417eff">
<path fill="#2a417e" opacity="1.00" d=" M 109.00 115.95 C 111.54 115.99 114.08 116.00 116.62 116.00 C 117.41 116.82 118.20 117.63 119.00 118.45 C 119.00 119.00 119.00 120.11 119.00 120.67 C 118.80 120.79 118.39 121.05 118.19 121.18 L 117.49 121.63 C 116.93 120.31 116.33 119.00 115.59 117.77 C 115.46 117.68 115.20 117.49 115.08 117.40 C 114.31 117.24 112.79 116.94 112.03 116.78 C 112.03 118.92 112.09 121.06 111.94 123.20 C 111.94 123.60 111.93 124.40 111.92 124.80 C 112.03 126.91 111.96 129.10 112.95 131.04 C 111.64 131.03 110.33 131.03 109.03 131.04 C 110.61 126.32 110.66 120.65 109.00 115.95 Z" />
</g>
<g id="#384e87ff">
<path fill="#384e87" opacity="1.00" d=" M 122.09 130.69 C 125.36 126.11 126.38 120.35 129.37 115.60 C 132.39 120.56 133.33 126.62 137.26 131.03 C 135.92 131.02 134.58 131.02 133.24 131.03 C 132.66 129.35 132.11 127.65 131.66 125.94 C 127.96 125.17 123.79 126.38 124.86 130.99 C 122.98 131.00 121.10 131.02 119.22 131.05 C 117.51 128.71 115.84 126.33 113.84 124.24 C 115.03 123.34 116.22 122.43 117.49 121.63 L 118.19 121.18 C 117.88 121.92 117.25 123.41 116.93 124.16 C 118.55 126.41 120.14 128.70 122.09 130.69 M 126.63 125.00 C 128.13 125.00 129.62 125.00 131.12 125.00 C 130.40 123.18 129.66 121.36 128.88 119.57 C 128.11 121.37 127.36 123.18 126.63 125.00 Z" />
</g>
<g id="#4f6294ff">
<path fill="#4f6294" opacity="1.00" d=" M 147.15 116.24 C 148.50 115.62 152.45 115.33 151.97 117.60 C 150.57 118.14 147.74 117.46 147.15 116.24 Z" />
</g>
<g id="#2b427fff">
<path fill="#2b427f" opacity="1.00" d=" M 156.05 115.96 C 157.36 115.96 158.68 115.96 160.00 115.95 C 159.03 117.63 158.93 119.55 158.94 121.44 L 160.08 122.12 C 160.41 122.32 161.07 122.73 161.40 122.94 C 164.37 125.67 166.91 128.92 170.42 131.01 C 169.08 131.01 167.73 131.01 166.39 131.01 C 164.01 128.46 161.55 125.98 158.97 123.63 C 158.97 126.13 158.67 128.79 159.99 131.04 C 158.68 131.03 157.36 131.03 156.05 131.04 C 157.62 126.31 157.62 120.69 156.05 115.96 Z" />
</g>
<g id="#6a7ba5ff">
<path fill="#6a7ba5" opacity="1.00" d=" M 71.27 118.87 C 71.47 118.39 71.86 117.42 72.06 116.93 C 71.86 117.42 71.47 118.39 71.27 118.87 Z" />
</g>
<g id="#5f719eff">
<path fill="#5f719e" opacity="1.00" d=" M 97.00 117.06 L 97.91 117.14 C 98.20 121.66 98.21 126.21 97.62 130.71 C 97.20 130.89 96.35 131.23 95.93 131.41 C 97.99 126.92 96.61 121.82 97.00 117.06 Z" />
</g>
<g id="#6e7ea7ff">
<path fill="#6e7ea7" opacity="1.00" d=" M 115.08 117.40 C 115.20 117.49 115.46 117.68 115.59 117.77 C 115.46 117.68 115.20 117.49 115.08 117.40 Z" />
</g>
<g id="#c9cfdeff">
<path fill="#c9cfde" opacity="1.00" d=" M 126.63 125.00 C 127.36 123.18 128.11 121.37 128.88 119.57 C 129.66 121.36 130.40 123.18 131.12 125.00 C 129.62 125.00 128.13 125.00 126.63 125.00 Z" />
</g>
<g id="#5c6e9cff">
<path fill="#5c6e9c" opacity="1.00" d=" M 160.08 122.12 C 159.91 120.99 161.43 119.46 162.52 120.16 C 162.72 121.30 162.34 122.22 161.40 122.94 C 161.07 122.73 160.41 122.32 160.08 122.12 Z" />
</g>
<g id="#61739fff">
<path fill="#61739f" opacity="1.00" d=" M 111.94 123.20 C 113.54 123.75 113.53 124.28 111.92 124.80 C 111.93 124.40 111.94 123.60 111.94 123.20 Z" />
</g>
<g id="#7282a9ff">
<path fill="#7282a9" opacity="1.00" d=" M 151.24 128.49 C 151.55 128.77 151.55 128.77 151.24 128.49 Z" />
</g>
</svg>
